<mxfile host="app.diagrams.net" agent="Mozilla/5.0 (X11; Ubuntu; Linux x86_64; rv:131.0) Gecko/20100101 Firefox/131.0" version="24.8.3">
  <diagram name="Page-1" id="-H_mtQnk-PTXWXPvYvuk">
    <mxGraphModel dx="1434" dy="883" grid="1" gridSize="10" guides="1" tooltips="1" connect="1" arrows="1" fold="1" page="1" pageScale="1" pageWidth="1169" pageHeight="827" math="0" shadow="0">
      <root>
        <mxCell id="0" />
        <mxCell id="1" parent="0" />
        <mxCell id="zA23MoTUsTF4_91t8viU-3" value="pymongo-api" style="rounded=1;whiteSpace=wrap;html=1;" parent="1" vertex="1">
          <mxGeometry x="202" y="436" width="120" height="60" as="geometry" />
        </mxCell>
        <mxCell id="zA23MoTUsTF4_91t8viU-4" style="edgeStyle=orthogonalEdgeStyle;rounded=0;orthogonalLoop=1;jettySize=auto;html=1;exitX=1;exitY=0.5;exitDx=0;exitDy=0;entryX=0;entryY=0.5;entryDx=0;entryDy=0;entryPerimeter=0;" parent="1" source="zA23MoTUsTF4_91t8viU-3" edge="1">
          <mxGeometry relative="1" as="geometry">
            <mxPoint x="401.9999999999998" y="466" as="targetPoint" />
          </mxGeometry>
        </mxCell>
        <mxCell id="PALh2jBZQSpQOgBiLoI5-8" style="edgeStyle=orthogonalEdgeStyle;rounded=0;orthogonalLoop=1;jettySize=auto;html=1;entryX=0;entryY=0.5;entryDx=0;entryDy=0;" edge="1" parent="1" source="PALh2jBZQSpQOgBiLoI5-6" target="PALh2jBZQSpQOgBiLoI5-7">
          <mxGeometry relative="1" as="geometry" />
        </mxCell>
        <mxCell id="PALh2jBZQSpQOgBiLoI5-6" value="&lt;div&gt;Driver&lt;/div&gt;" style="rounded=1;whiteSpace=wrap;html=1;" vertex="1" parent="1">
          <mxGeometry x="402" y="436" width="120" height="60" as="geometry" />
        </mxCell>
        <mxCell id="PALh2jBZQSpQOgBiLoI5-7" value="&lt;div&gt;Router&lt;/div&gt;" style="rounded=1;whiteSpace=wrap;html=1;" vertex="1" parent="1">
          <mxGeometry x="602" y="436" width="120" height="60" as="geometry" />
        </mxCell>
        <mxCell id="PALh2jBZQSpQOgBiLoI5-16" style="edgeStyle=orthogonalEdgeStyle;rounded=0;orthogonalLoop=1;jettySize=auto;html=1;entryX=0.5;entryY=0;entryDx=0;entryDy=0;" edge="1" parent="1" source="PALh2jBZQSpQOgBiLoI5-13" target="PALh2jBZQSpQOgBiLoI5-7">
          <mxGeometry relative="1" as="geometry" />
        </mxCell>
        <mxCell id="PALh2jBZQSpQOgBiLoI5-13" value="Config Server" style="rounded=1;whiteSpace=wrap;html=1;" vertex="1" parent="1">
          <mxGeometry x="807" y="252" width="120" height="60" as="geometry" />
        </mxCell>
        <mxCell id="PALh2jBZQSpQOgBiLoI5-21" style="edgeStyle=orthogonalEdgeStyle;rounded=0;orthogonalLoop=1;jettySize=auto;html=1;entryX=1;entryY=0.5;entryDx=0;entryDy=0;" edge="1" parent="1" source="PALh2jBZQSpQOgBiLoI5-17" target="PALh2jBZQSpQOgBiLoI5-13">
          <mxGeometry relative="1" as="geometry">
            <Array as="points">
              <mxPoint x="947" y="396" />
              <mxPoint x="947" y="282" />
            </Array>
          </mxGeometry>
        </mxCell>
        <mxCell id="PALh2jBZQSpQOgBiLoI5-17" value="Shard 1" style="shape=cylinder3;whiteSpace=wrap;html=1;boundedLbl=1;backgroundOutline=1;size=15;" vertex="1" parent="1">
          <mxGeometry x="837" y="356" width="60" height="80" as="geometry" />
        </mxCell>
        <mxCell id="PALh2jBZQSpQOgBiLoI5-22" style="edgeStyle=orthogonalEdgeStyle;rounded=0;orthogonalLoop=1;jettySize=auto;html=1;entryX=1;entryY=0.5;entryDx=0;entryDy=0;" edge="1" parent="1" source="PALh2jBZQSpQOgBiLoI5-18" target="PALh2jBZQSpQOgBiLoI5-13">
          <mxGeometry relative="1" as="geometry">
            <Array as="points">
              <mxPoint x="967" y="536" />
              <mxPoint x="967" y="282" />
            </Array>
          </mxGeometry>
        </mxCell>
        <mxCell id="PALh2jBZQSpQOgBiLoI5-18" value="Shard 2" style="shape=cylinder3;whiteSpace=wrap;html=1;boundedLbl=1;backgroundOutline=1;size=15;" vertex="1" parent="1">
          <mxGeometry x="837" y="496" width="60" height="80" as="geometry" />
        </mxCell>
        <mxCell id="PALh2jBZQSpQOgBiLoI5-19" style="edgeStyle=orthogonalEdgeStyle;rounded=0;orthogonalLoop=1;jettySize=auto;html=1;entryX=0;entryY=0.5;entryDx=0;entryDy=0;entryPerimeter=0;" edge="1" parent="1" source="PALh2jBZQSpQOgBiLoI5-7" target="PALh2jBZQSpQOgBiLoI5-18">
          <mxGeometry relative="1" as="geometry" />
        </mxCell>
        <mxCell id="PALh2jBZQSpQOgBiLoI5-20" style="edgeStyle=orthogonalEdgeStyle;rounded=0;orthogonalLoop=1;jettySize=auto;html=1;entryX=0;entryY=0.5;entryDx=0;entryDy=0;entryPerimeter=0;" edge="1" parent="1" source="PALh2jBZQSpQOgBiLoI5-7" target="PALh2jBZQSpQOgBiLoI5-17">
          <mxGeometry relative="1" as="geometry" />
        </mxCell>
      </root>
    </mxGraphModel>
  </diagram>
</mxfile>
